<?xml version="1.0" encoding="utf-8"?>
<!DOCTYPE svg PUBLIC "-//W3C//DTD SVG 1.1//EN" "http://www.w3.org/Graphics/SVG/1.1/DTD/svg11.dtd">
<svg version="1.1" id="Calque_1" xmlns="http://www.w3.org/2000/svg" xmlns:xlink="http://www.w3.org/1999/xlink" x="0px" y="0px"
	 width="20px" height="40px" viewBox="0 0 20 40" enable-background="new 0 0 20 40" xml:space="preserve">
<g>
	<path fill="none" stroke="#FFFFFF" stroke-width="2.5" stroke-linecap="round" stroke-linejoin="round" stroke-miterlimit="3" d="
		M6.298,25.511C6.548,26.97,6.677,28.47,6.677,30c0,1.529-0.129,3.029-0.379,4.488"/>
</g>
<g>
	<path fill="none" stroke="#FFFFFF" stroke-width="2.5" stroke-linecap="round" stroke-linejoin="round" stroke-miterlimit="3" d="
		M12.614,1.5c0.71,2.714,1.088,5.563,1.088,8.5c0,2.937-0.378,5.785-1.088,8.5"/>
	<path fill="none" stroke="#FFFFFF" stroke-width="2.5" stroke-linecap="round" stroke-linejoin="round" stroke-miterlimit="3" d="
		M9.481,3.492C9.946,5.587,10.19,7.765,10.189,10c0,2.234-0.245,4.412-0.708,6.508"/>
	<path fill="none" stroke="#FFFFFF" stroke-width="2.5" stroke-linecap="round" stroke-linejoin="round" stroke-miterlimit="3" d="
		M6.298,5.511C6.548,6.97,6.677,8.47,6.677,10c0,1.529-0.129,3.029-0.379,4.488"/>
</g>
</svg>
